<svg width="60" height="30" viewBox="0 0 45 24" fill="none" xmlns="http://www.w3.org/2000/svg">
<rect x="0.25" y="2.25" width="44.5" height="21.5" rx="10.75" fill="white"/>
<rect x="0.25" y="2.25" width="44.5" height="21.5" rx="10.75" stroke="url(#paint0_radial_1202_1586)" stroke-width="0.5"/>
<path d="M17 13.5C17 15.9853 14.9853 18 12.5 18C10.0147 18 8 15.9853 8 13.5C8 11.0147 10.0147 9 12.5 9C14.9853 9 17 11.0147 17 13.5ZM10.2737 13.5C10.2737 14.7296 11.2704 15.7263 12.5 15.7263C13.7296 15.7263 14.7263 14.7296 14.7263 13.5C14.7263 12.2704 13.7296 11.2737 12.5 11.2737C11.2704 11.2737 10.2737 12.2704 10.2737 13.5Z" fill="url(#paint1_angular_1202_1586)"/>
<path d="M10.5386 10.1538L12.8463 11.4862V8.82146L10.5386 10.1538Z" fill="#FC4B40"/>
<path d="M20.9318 13.0909V18H17.7955V9.27273H20.7727V10.9318H20.8636C21.053 10.3788 21.3864 9.94508 21.8636 9.63068C22.3447 9.31629 22.9053 9.15909 23.5455 9.15909C24.1629 9.15909 24.6989 9.30114 25.1534 9.58523C25.6117 9.86553 25.9659 10.2519 26.2159 10.7443C26.4697 11.2367 26.5947 11.7992 26.5909 12.4318V18H23.4545V13.0909C23.4583 12.6591 23.3485 12.3201 23.125 12.0739C22.9053 11.8277 22.5985 11.7045 22.2045 11.7045C21.947 11.7045 21.7216 11.7614 21.5284 11.875C21.339 11.9848 21.1932 12.1439 21.0909 12.3523C20.9886 12.5568 20.9356 12.803 20.9318 13.0909ZM32.001 18.1591C31.0692 18.1591 30.2662 17.9811 29.5919 17.625C28.9215 17.2652 28.4044 16.75 28.0408 16.0795C27.6809 15.4053 27.501 14.5985 27.501 13.6591C27.501 12.7576 27.6828 11.9697 28.0465 11.2955C28.4101 10.6212 28.9234 10.0966 29.5863 9.72159C30.2491 9.34659 31.0313 9.15909 31.9328 9.15909C32.5919 9.15909 33.1885 9.26136 33.7226 9.46591C34.2567 9.67045 34.7131 9.9678 35.0919 10.358C35.4707 10.7443 35.7624 11.214 35.9669 11.767C36.1715 12.3201 36.2738 12.9432 36.2738 13.6364V14.3636H28.4783V12.6364H33.3874C33.3836 12.3864 33.3192 12.1667 33.1942 11.9773C33.073 11.7841 32.9082 11.6345 32.6999 11.5284C32.4953 11.4186 32.2624 11.3636 32.001 11.3636C31.7472 11.3636 31.5143 11.4186 31.3022 11.5284C31.09 11.6345 30.9196 11.7822 30.7908 11.9716C30.6658 12.161 30.5995 12.3826 30.5919 12.6364V14.5C30.5919 14.7803 30.6506 15.0303 30.7681 15.25C30.8855 15.4697 31.0541 15.642 31.2738 15.767C31.4934 15.892 31.7586 15.9545 32.0692 15.9545C32.2851 15.9545 32.4821 15.9242 32.6601 15.8636C32.8419 15.803 32.9972 15.7159 33.126 15.6023C33.2548 15.4848 33.3495 15.3447 33.4101 15.1818H36.2738C36.1753 15.7879 35.9423 16.3144 35.5749 16.7614C35.2075 17.2045 34.7207 17.5492 34.1147 17.7955C33.5124 18.0379 32.8078 18.1591 32.001 18.1591Z" fill="#FC4B40"/>
<path d="M17.5284 5V0.636364H19.054C19.358 0.636364 19.6087 0.68892 19.8061 0.794034C20.0036 0.897727 20.1506 1.03764 20.2472 1.21378C20.3438 1.38849 20.392 1.58239 20.392 1.79545C20.392 1.98295 20.3587 2.13778 20.2919 2.25994C20.2266 2.3821 20.1399 2.47869 20.032 2.54972C19.9254 2.62074 19.8097 2.6733 19.6847 2.70739V2.75C19.8182 2.75852 19.9524 2.8054 20.0874 2.89062C20.2223 2.97585 20.3352 3.09801 20.4261 3.2571C20.517 3.41619 20.5625 3.6108 20.5625 3.84091C20.5625 4.05966 20.5128 4.25639 20.4134 4.43111C20.3139 4.60582 20.157 4.74432 19.9425 4.84659C19.728 4.94886 19.4489 5 19.1051 5H17.5284ZM18.0568 4.53125H19.1051C19.4503 4.53125 19.6953 4.46449 19.8402 4.33097C19.9865 4.19602 20.0597 4.03267 20.0597 3.84091C20.0597 3.69318 20.022 3.55682 19.9467 3.43182C19.8714 3.3054 19.7642 3.20455 19.625 3.12926C19.4858 3.05256 19.321 3.0142 19.1307 3.0142H18.0568V4.53125ZM18.0568 2.55398H19.0369C19.196 2.55398 19.3395 2.52273 19.4673 2.46023C19.5966 2.39773 19.6989 2.30966 19.7741 2.19602C19.8509 2.08239 19.8892 1.94886 19.8892 1.79545C19.8892 1.60369 19.8224 1.44105 19.6889 1.30753C19.5554 1.17259 19.3438 1.10511 19.054 1.10511H18.0568V2.55398ZM23.6344 0.636364H24.1628V3.52557C24.1628 3.82386 24.0925 4.0902 23.9519 4.32457C23.8127 4.55753 23.6159 4.74148 23.3617 4.87642C23.1074 5.00994 22.8091 5.0767 22.4668 5.0767C22.1244 5.0767 21.8262 5.00994 21.5719 4.87642C21.3176 4.74148 21.1202 4.55753 20.9796 4.32457C20.8404 4.0902 20.7708 3.82386 20.7708 3.52557V0.636364H21.2992V3.48295C21.2992 3.69602 21.346 3.88565 21.4398 4.05185C21.5335 4.21662 21.6671 4.34659 21.8404 4.44176C22.0151 4.53551 22.2239 4.58239 22.4668 4.58239C22.7097 4.58239 22.9185 4.53551 23.0932 4.44176C23.2679 4.34659 23.4014 4.21662 23.4938 4.05185C23.5875 3.88565 23.6344 3.69602 23.6344 3.48295V0.636364ZM24.183 0.636364H24.7881L25.9984 2.6733H26.0495L27.2597 0.636364H27.8648L26.2881 3.2017V5H25.7597V3.2017L24.183 0.636364Z" fill="#1F1F1F" fill-opacity="0.53"/>
<defs>
<radialGradient id="paint0_radial_1202_1586" cx="0" cy="0" r="1" gradientUnits="userSpaceOnUse" gradientTransform="translate(22.5 0.5) rotate(91.1017) scale(26.0048 53.1917)">
<stop offset="0.23" stop-color="#FFB1AC" stop-opacity="0.03"/>
<stop offset="0.27" stop-color="#FC4B40" stop-opacity="0.47"/>
<stop offset="1" stop-color="#FC4B40"/>
</radialGradient>
<radialGradient id="paint1_angular_1202_1586" cx="0" cy="0" r="1" gradientUnits="userSpaceOnUse" gradientTransform="translate(12.5 13.5) rotate(-90) scale(4.5)">
<stop stop-color="#FD4539"/>
<stop offset="1" stop-color="#FF6B61" stop-opacity="0.47"/>
</radialGradient>
</defs>
</svg>
