<svg width="60" height="30" viewBox="0 0 45 22" fill="none" xmlns="http://www.w3.org/2000/svg">
<rect x="0.25" y="0.25" width="44.5" height="21.5" rx="10.75" fill="white"/>
<rect x="0.25" y="0.25" width="44.5" height="21.5" rx="10.75" stroke="url(#paint0_radial_1202_1594)" stroke-width="0.5"/>
<path d="M17 11.5C17 13.9853 14.9853 16 12.5 16C10.0147 16 8 13.9853 8 11.5C8 9.01472 10.0147 7 12.5 7C14.9853 7 17 9.01472 17 11.5ZM10.2737 11.5C10.2737 12.7296 11.2704 13.7263 12.5 13.7263C13.7296 13.7263 14.7263 12.7296 14.7263 11.5C14.7263 10.2704 13.7296 9.27367 12.5 9.27367C11.2704 9.27367 10.2737 10.2704 10.2737 11.5Z" fill="url(#paint1_angular_1202_1594)"/>
<path d="M10.5386 8.15381L12.8463 9.48616V6.82146L10.5386 8.15381Z" fill="#FC4B40"/>
<path d="M20.9318 11.0909V16H17.7955V7.27273H20.7727V8.93182H20.8636C21.053 8.37879 21.3864 7.94508 21.8636 7.63068C22.3447 7.31629 22.9053 7.15909 23.5455 7.15909C24.1629 7.15909 24.6989 7.30114 25.1534 7.58523C25.6117 7.86553 25.9659 8.25189 26.2159 8.74432C26.4697 9.23674 26.5947 9.79924 26.5909 10.4318V16H23.4545V11.0909C23.4583 10.6591 23.3485 10.3201 23.125 10.0739C22.9053 9.82765 22.5985 9.70455 22.2045 9.70455C21.947 9.70455 21.7216 9.76136 21.5284 9.875C21.339 9.98485 21.1932 10.1439 21.0909 10.3523C20.9886 10.5568 20.9356 10.803 20.9318 11.0909ZM32.001 16.1591C31.0692 16.1591 30.2662 15.9811 29.5919 15.625C28.9215 15.2652 28.4044 14.75 28.0408 14.0795C27.6809 13.4053 27.501 12.5985 27.501 11.6591C27.501 10.7576 27.6828 9.9697 28.0465 9.29545C28.4101 8.62121 28.9234 8.09659 29.5863 7.72159C30.2491 7.34659 31.0313 7.15909 31.9328 7.15909C32.5919 7.15909 33.1885 7.26136 33.7226 7.46591C34.2567 7.67045 34.7131 7.9678 35.0919 8.35795C35.4707 8.74432 35.7624 9.21402 35.9669 9.76705C36.1715 10.3201 36.2738 10.9432 36.2738 11.6364V12.3636H28.4783V10.6364H33.3874C33.3836 10.3864 33.3192 10.1667 33.1942 9.97727C33.073 9.78409 32.9082 9.63447 32.6999 9.52841C32.4953 9.41856 32.2624 9.36364 32.001 9.36364C31.7472 9.36364 31.5143 9.41856 31.3022 9.52841C31.09 9.63447 30.9196 9.7822 30.7908 9.97159C30.6658 10.161 30.5995 10.3826 30.5919 10.6364V12.5C30.5919 12.7803 30.6506 13.0303 30.7681 13.25C30.8855 13.4697 31.0541 13.642 31.2738 13.767C31.4934 13.892 31.7586 13.9545 32.0692 13.9545C32.2851 13.9545 32.4821 13.9242 32.6601 13.8636C32.8419 13.803 32.9972 13.7159 33.126 13.6023C33.2548 13.4848 33.3495 13.3447 33.4101 13.1818H36.2738C36.1753 13.7879 35.9423 14.3144 35.5749 14.7614C35.2075 15.2045 34.7207 15.5492 34.1147 15.7955C33.5124 16.0379 32.8078 16.1591 32.001 16.1591Z" fill="#FC4B40"/>
<defs>
<radialGradient id="paint0_radial_1202_1594" cx="0" cy="0" r="1" gradientUnits="userSpaceOnUse" gradientTransform="translate(22.5 -1.5) rotate(91.1017) scale(26.0048 53.1917)">
<stop offset="0.23" stop-color="#FFB1AC" stop-opacity="0.03"/>
<stop offset="0.27" stop-color="#FC4B40" stop-opacity="0.47"/>
<stop offset="1" stop-color="#FC4B40"/>
</radialGradient>
<radialGradient id="paint1_angular_1202_1594" cx="0" cy="0" r="1" gradientUnits="userSpaceOnUse" gradientTransform="translate(12.5 11.5) rotate(-90) scale(4.5)">
<stop stop-color="#FD4539"/>
<stop offset="1" stop-color="#FF6B61" stop-opacity="0.47"/>
</radialGradient>
</defs>
</svg>
