<svg width="14" height="14" viewBox="0 0 11 11" fill="none" xmlns="http://www.w3.org/2000/svg">
<path fill-rule="evenodd" clip-rule="evenodd" d="M0 5.5C0 2.46243 2.46243 0 5.5 0C8.53754 0 11 2.46243 11 5.5C11 8.53754 8.53754 11 5.5 11C2.46243 11 0 8.53754 0 5.5ZM5.50001 2.56667C5.64217 2.56667 5.77152 2.64884 5.83193 2.77754L6.54197 4.29026L8.12203 4.53151C8.25785 4.55225 8.37071 4.64723 8.41434 4.77756C8.45797 4.90789 8.42512 5.05167 8.32913 5.15004L7.17502 6.33287L7.44825 8.00763C7.47083 8.14623 7.41231 8.28557 7.29755 8.36638C7.18277 8.44727 7.03187 8.45548 6.90898 8.38757L5.50001 7.6087L4.09103 8.38757C3.96815 8.45548 3.81725 8.44727 3.70246 8.36638C3.58767 8.28557 3.52915 8.14623 3.55176 8.00763L3.82499 6.33287L2.6709 5.15004C2.57492 5.05167 2.54201 4.90789 2.58565 4.77756C2.62929 4.64723 2.74214 4.55225 2.878 4.53151L4.45805 4.29026L5.16809 2.77754C5.22849 2.64884 5.35784 2.56667 5.50001 2.56667Z" fill="#03D858"/>
</svg>
