<svg xmlns:xlink="http://www.w3.org/1999/xlink" viewBox="0 0 519.8057180851064 543.2202867000001" data-name="Layer 1" xmlns="http://www.w3.org/2000/svg" style="max-height: 500px" width="120.8057180851064" height="120.2202867000001">

<path fill="#9f616a" transform="translate(-347.26688 -151.52732)" d="M706.73312,652.47268l5,96S500.239,547.178,473.89063,488.28153,497.13921,283.694,497.13921,283.694l110.04332,60.44633Z"/><path fill="#9f616a" transform="translate(-347.26688 -151.52732)" d="M382.44618,243.39641l-32.548,3.09981s-17.049,37.19774,35.64783,40.29756Z"/><path fill="#9f616a" transform="translate(-347.26688 -151.52732)" d="M382.44618,300.74293l-32.548,3.09981s-17.049,37.19774,35.64783,40.29755Z"/><path fill="#9f616a" transform="translate(-347.26688 -151.52732)" d="M382.44618,362.73916l-32.548,3.09981s-17.049,37.19774,35.64783,40.29756Z"/><path fill="#9f616a" transform="translate(-347.26688 -151.52732)" d="M391.74562,424.7354l-32.548,3.09981s-17.049,37.19774,35.64784,40.29755Z"/><path fill="#3f3d56" transform="translate(-347.26688 -151.52732)" d="M366.60044,258.3401h2.46966V190.68455a39.15718,39.15718,0,0,1,39.15715-39.15723H551.56477a39.15718,39.15718,0,0,1,39.15726,39.1571V561.84816a39.15719,39.15719,0,0,1-39.15715,39.15723H408.22744a39.1572,39.1572,0,0,1-39.15731-39.15708V306.49848h-2.46969Z"/><path fill="#fff" transform="translate(-347.26688 -151.52732)" d="M406.64739,161.71467h18.71028a13.8929,13.8929,0,0,0,12.86292,19.13985h82.1162a13.89286,13.89286,0,0,0,12.86291-19.13987h17.47545a29.24215,29.24215,0,0,1,29.24218,29.24211V561.57589a29.24216,29.24216,0,0,1-29.24214,29.24218H406.64739a29.24216,29.24216,0,0,1-29.24218-29.24214h0V190.95679A29.24214,29.24214,0,0,1,406.64739,161.71467Z"/><rect style="isolation:isolate" fill="#fc801a" height="14.89247" width="61.71533" y="114.01642" x="100.53673"/><rect fill="#e5e5e5" height="14.89247" width="67.59164" y="178.00873" x="97.59857"/><rect fill="#e5e5e5" height="14.89247" width="150.85812" y="209.9996" x="55.96534"/><rect fill="#e5e5e5" height="14.89247" width="150.85812" y="241.99047" x="55.96534"/><path fill="#9f616a" transform="translate(-347.26688 -151.52732)" d="M852.73312,702.47268l-173.48-197.91713-6.19962-127.09228-65.096-108.49341-18.59887-46.49718s-43.39736,4.64972-7.74953,92.99435l14.72411,47.27213,0,0a216.67408,216.67408,0,0,0-20.14876,91.24394v108.3237c0,25.50678,121.55,164.44287,135.69866,185.6658l0,0Z"/><polygon opacity="0.2" points="247.195 126.636 260.136 120.276 259.695 119.378 247.738 125.255 229.688 77.932 228.754 78.289 247.195 126.636"/><rect opacity="0.2" transform="translate(-346.65612 349.39987) rotate(-69.7779)" height="20.43016" width="1.00012" y="239.81058" x="358.98404"/><rect opacity="0.2" transform="translate(-401.08099 387.35158) rotate(-69.7779)" height="20.43016" width="1.00012" y="297.81058" x="358.98404"/><rect opacity="0.2" transform="translate(-459.25929 427.92066) rotate(-69.7779)" height="20.43016" width="1.00012" y="359.81058" x="358.98404"/><rect opacity="0.2" transform="translate(-528.7721 421.49849) rotate(-64.36101)" height="10.35283" width="0.99981" y="425.55799" x="364.06574"/><circle fill="#fc801a" r="43.22999" cy="342.17535" cx="131.47081"/><polygon fill="#fff" points="127.351 360.424 114.413 343.787 121.937 337.935 128.063 345.812 148.76 323.964 155.681 330.521 127.351 360.424"/></svg>