<svg width="23" height="23" viewBox="0 0 23 23" fill="none" xmlns="http://www.w3.org/2000/svg">
<path d="M3.245 8.62998V15.9633C3.245 16.4495 3.43815 16.9159 3.78197 17.2597C4.12578 17.6035 4.5921 17.7967 5.07833 17.7967H17.9117C18.3979 17.7967 18.8642 17.6035 19.208 17.2597C19.5518 16.9159 19.745 16.4495 19.745 15.9633V8.62998M3.245 8.62998V6.79665C3.245 6.31042 3.43815 5.84411 3.78197 5.50029C4.12578 5.15647 4.5921 4.96332 5.07833 4.96332H17.9117C18.3979 4.96332 18.8642 5.15647 19.208 5.50029C19.5518 5.84411 19.745 6.31042 19.745 6.79665V8.62998M3.245 8.62998H19.745M6.91166 12.2967H11.495" stroke="#93959F" stroke-width="2" stroke-linecap="round" stroke-linejoin="round"/>
</svg>
