<svg width="23" height="23" viewBox="0 0 23 23" fill="none" xmlns="http://www.w3.org/2000/svg">
<path d="M14.6048 16.88L14.7637 20.1026L11.504 17.8373L8.22606 20.1047L8.38509 16.88H7.00842L6.77114 21.6925H8.34775L11.5022 19.5105L14.6421 21.6925H16.2188L15.9815 16.88H14.6048ZM18.3446 7.03644L18.2503 4.97162L16.5094 3.85757L15.3951 2.11652L13.3303 2.02198L11.495 1.07147L9.65963 2.0222L7.59477 2.11673L6.4805 3.85757L4.73962 4.97162L4.64535 7.03644L3.69458 8.8718L4.64535 10.7072L4.73988 12.772L6.4805 13.886L7.5946 15.6271L9.65946 15.7215L11.495 16.6722L13.3303 15.7215L15.3951 15.6271L16.5092 13.886L18.2502 12.7722L18.3446 10.7074L19.2953 8.87198L18.3446 7.03644ZM16.9848 10.3428L16.909 11.9977L15.5136 12.8906L14.6207 14.286L12.9658 14.3617L11.495 15.1236L10.024 14.3617L8.36902 14.286L7.47613 12.8906L6.08089 11.9977L6.00531 10.3428L5.243 8.8718L6.00514 7.40107L6.08089 5.74591L7.47613 4.85302L8.36902 3.45766L10.024 3.38203L11.495 2.62002L12.9659 3.38199L14.6209 3.45761L15.5138 4.85298L16.909 5.74591L16.9846 7.40086L17.7469 8.8718L16.9848 10.3428Z" fill="#93959F"/>
</svg>
