<svg width="23" height="23" viewBox="0 0 23 23" fill="none" xmlns="http://www.w3.org/2000/svg">
<g clip-path="url(#clip0_12_842)">
<path d="M6.25281 10.8116H5.99042H5.49254H4.57703H1.49652C1.50662 11.63 1.56697 12.3963 1.67568 13.1117C1.81031 13.9035 1.99713 14.6372 2.23392 15.3147C2.47081 15.9925 2.75731 16.6057 3.09096 17.1575C3.42352 17.7075 3.80394 18.1947 4.2314 18.6221L4.2418 18.6325L4.25188 18.6432C4.67399 19.0909 5.13188 19.4784 5.62587 19.8077C6.12487 20.1404 6.65177 20.415 7.20762 20.6322C7.76598 20.8504 8.34827 21.0115 8.95576 21.1149L8.96592 21.1166L8.97604 21.1186C9.58576 21.2353 10.2102 21.2941 10.8505 21.2941C11.4907 21.2941 12.1152 21.2353 12.7249 21.1186L12.735 21.1166L12.7452 21.1149C13.3527 21.0115 13.9349 20.8504 14.4933 20.6322C15.0492 20.415 15.5761 20.1404 16.0751 19.8077C16.569 19.4784 17.0269 19.0909 17.449 18.6432L17.4591 18.6325L17.4695 18.6221C17.897 18.1947 18.2774 17.7075 18.61 17.1575C18.9436 16.6057 19.2301 15.9925 19.467 15.3147C19.7038 14.6372 19.8906 13.9035 20.0252 13.1117C20.134 12.3963 20.1943 11.63 20.2044 10.8116H6.25281ZM13.4185 2.10201C13.4934 2.02909 13.5243 1.96334 13.5243 1.84094C13.5243 1.74352 13.5006 1.67286 13.409 1.58125C13.3174 1.48964 13.2467 1.46594 13.1493 1.46594C13.0269 1.46594 12.9611 1.49688 12.8882 1.57176C12.801 1.66135 12.7743 1.7349 12.7743 1.84094C12.7743 1.97193 12.808 2.04054 12.8789 2.11138C12.9497 2.18221 13.0183 2.21594 13.1493 2.21594C13.2553 2.21594 13.3289 2.18924 13.4185 2.10201ZM9.47546 5.88977C9.59786 5.88977 9.66362 5.85884 9.73653 5.78395C9.82376 5.69437 9.85046 5.62082 9.85046 5.51477C9.85046 5.38378 9.81673 5.31517 9.74589 5.24434C9.67506 5.1735 9.60645 5.13977 9.47546 5.13977C9.34447 5.13977 9.27587 5.1735 9.20503 5.24434C9.1342 5.31517 9.10046 5.38378 9.10046 5.51477C9.10046 5.62082 9.12717 5.69437 9.21439 5.78395C9.28731 5.85884 9.35307 5.88977 9.47546 5.88977ZM14.9755 6.8136C15.0979 6.8136 15.1636 6.78267 15.2365 6.70778C15.3238 6.61819 15.3505 6.54464 15.3505 6.4386C15.3505 6.30761 15.3167 6.239 15.2459 6.16817C15.1751 6.09733 15.1065 6.0636 14.9755 6.0636C14.8445 6.0636 14.7759 6.09733 14.705 6.16817C14.6342 6.239 14.6005 6.30761 14.6005 6.4386C14.6005 6.54464 14.6272 6.61819 14.7144 6.70778C14.7873 6.78267 14.8531 6.8136 14.9755 6.8136Z" stroke="#93959F" stroke-width="2"/>
</g>
<defs>
<clipPath id="clip0_12_842">
<rect width="40" height="40" fill="white" transform="matrix(1 0 0 -1 0.494995 22.38)"/>
</clipPath>
</defs>
</svg>
