<svg width="25" height="24" viewBox="0 0 25 24" fill="none" xmlns="http://www.w3.org/2000/svg">
<path fill-rule="evenodd" clip-rule="evenodd" d="M13.6079 0.0702628C13.2568 0.238938 13.0061 0.622278 12.9924 1.01173C12.9822 1.30139 13.1514 1.66664 13.3897 1.86908C13.5493 2.00469 13.6094 2.02338 13.928 2.0363C14.2327 2.04868 14.3147 2.03345 14.4725 1.93551C14.9315 1.65071 15.0968 0.942044 14.8103 0.487117C14.7533 0.396592 14.6175 0.25547 14.5086 0.173562C14.266 -0.00883979 13.8677 -0.0545279 13.6079 0.0702628ZM2.81686 0.637657C2.45504 0.813596 2.1838 1.30013 2.25004 1.65452C2.28188 1.82485 2.42616 2.09692 3.38809 3.80051C4.19881 5.23623 4.31116 5.44984 4.27554 5.48791C4.26276 5.50159 4.05579 5.55384 3.81568 5.60399C2.54268 5.86975 1.38553 6.45663 0.767588 7.14992L0.5 7.45015V8.37062C0.5 8.8769 0.518632 9.31254 0.541383 9.33869C0.564135 9.36489 0.628598 9.74267 0.684634 10.1783C0.740623 10.6138 0.838558 11.2337 0.902225 11.5559C0.965891 11.878 1.03953 12.2656 1.06584 12.4171C1.12913 12.7814 1.31601 13.5334 1.48581 14.1071C2.12191 16.2566 3.28828 18.2696 4.74592 19.7338C5.43418 20.4251 6.44395 21.1839 7.17926 21.5624C7.36782 21.6595 7.52208 21.7622 7.52208 21.7907C7.52208 21.8192 7.47213 21.9367 7.41103 22.0518C7.34999 22.1669 7.2102 22.4415 7.10047 22.6619C6.99069 22.8823 6.79412 23.2656 6.66356 23.5135C6.53299 23.7615 6.43052 23.9755 6.43581 23.9891C6.44569 24.0145 19.1442 23.9908 19.1694 23.9653C19.1771 23.9575 18.9401 23.4773 18.6427 22.8983C18.3453 22.3192 18.102 21.8226 18.102 21.7946C18.102 21.7666 18.2972 21.6311 18.5359 21.4935C21.0035 20.0699 22.8104 17.7831 23.9064 14.6965C24.1293 14.0687 24.3546 13.2379 24.4163 12.8155C24.4721 12.4336 24.5275 7.9442 24.4849 7.25096L24.4555 6.77174L24.0993 6.54425C23.6406 6.25123 23.1787 6.04053 22.4791 5.80492C21.817 5.58199 20.8764 5.34108 20.6393 5.33366L20.4718 5.32845L20.296 5.85447C20.1097 6.41174 20.0705 6.78441 20.1749 7.00514C20.2217 7.10423 20.3126 7.15152 20.6306 7.2426C21.5289 7.49979 22.1831 7.71666 22.4602 7.84907L22.754 7.98944L22.4995 8.0978C22.1757 8.23576 20.7835 8.57682 20.0214 8.70497C17.8108 9.07663 14.3169 9.342 12.4141 9.28278C12.0537 9.27156 11.4006 9.25127 10.9629 9.23774C8.26618 9.15438 5.34322 8.75441 3.39075 8.2016C3.08824 8.11593 2.84069 8.02786 2.84069 8.00582C2.84069 7.91344 4.0652 7.47705 4.72298 7.33507C5.27459 7.21599 5.29107 7.2198 5.36372 7.48316C5.39804 7.60745 5.44499 7.72167 5.46807 7.7369C5.4911 7.75218 5.56699 7.69221 5.6366 7.60364C5.82503 7.36403 6.11462 7.15698 6.26129 7.15698C6.49756 7.15698 6.53206 7.12026 6.48772 6.91597C6.46563 6.81432 6.44709 6.41871 6.44648 6.03682L6.44536 5.34248L5.54925 3.75742C5.05639 2.88564 4.57496 2.03711 4.47941 1.87179C4.38382 1.70647 4.24848 1.46325 4.17868 1.33124C3.80974 0.6339 3.32863 0.388877 2.81686 0.637657ZM20.3875 1.81643C19.6854 2.01872 19.3906 2.88364 19.8177 3.48785C20.0409 3.80356 20.5426 3.97199 20.8933 3.84895C21.327 3.69676 21.5658 3.34763 21.5722 2.85614C21.5787 2.36534 21.3074 1.95239 20.8919 1.82034C20.6241 1.73522 20.6682 1.73557 20.3875 1.81643ZM9.74793 3.16288C9.51841 3.302 9.268 3.64561 9.22741 3.87721C9.14928 4.32292 9.38325 4.83605 9.75439 5.03298C10.0109 5.1691 10.394 5.15692 10.6462 5.00463C10.9589 4.81597 11.0989 4.55717 11.1189 4.1313C11.1346 3.7966 11.1263 3.76073 10.979 3.52783C10.69 3.07075 10.1594 2.91345 9.74793 3.16288ZM15.875 3.14389C15.469 3.34122 15.2285 3.87355 15.3371 4.33484C15.5136 5.08494 16.3472 5.38451 16.9003 4.89657C17.1141 4.70796 17.2209 4.44976 17.2262 4.10815C17.2382 3.33486 16.5268 2.82713 15.875 3.14389ZM17.8428 5.31708C17.3806 5.51707 17.1305 6.04388 17.2578 6.54971C17.3208 6.80014 17.5954 7.14456 17.8079 7.23979C18.4293 7.51818 19.1319 6.99697 19.1319 6.2576C19.1319 5.98447 18.9202 5.57112 18.7006 5.41562C18.486 5.26363 18.0754 5.21644 17.8428 5.31708ZM7.99344 5.8697C7.87936 5.93638 7.72136 6.08637 7.64234 6.20309C7.50789 6.40167 7.49867 6.44356 7.49867 6.85645C7.49867 7.27316 7.50663 7.30837 7.64183 7.49032C7.95997 7.9185 8.49627 8.03117 8.97639 7.77066C9.65974 7.39995 9.70426 6.37497 9.05687 5.91654C8.77804 5.71906 8.28809 5.69747 7.99344 5.8697ZM11.0592 6.0795C10.7716 6.18917 10.6463 6.3113 10.4979 6.62656C10.3674 6.90399 10.3633 6.93175 10.4147 7.1939C10.4765 7.50941 10.6299 7.75007 10.8702 7.90903C11.0118 8.00271 11.0892 8.01654 11.3827 8.00066C11.6842 7.98438 11.7509 7.96253 11.9041 7.82983C12.3732 7.4236 12.415 6.75786 11.9983 6.32903C11.8136 6.13902 11.5302 6.002 11.332 6.00696C11.2835 6.00817 11.1607 6.04083 11.0592 6.0795ZM14.3687 6.21036C13.7548 6.53558 13.66 7.4009 14.1844 7.8936C14.4878 8.17865 14.8482 8.228 15.2317 8.03698C15.8436 7.73209 15.9733 6.86296 15.4784 6.38444C15.3738 6.28335 15.2354 6.17915 15.1707 6.15279C14.966 6.06958 14.5825 6.09709 14.3687 6.21036ZM0.519521 8.38435C0.519568 8.90786 0.526497 9.11521 0.534923 8.84514C0.54335 8.57507 0.543303 8.14674 0.53483 7.8933C0.526356 7.63986 0.519475 7.86084 0.519521 8.38435ZM2.55981 10.2782C2.55981 10.4061 2.91564 11.3347 3.20397 11.9592C4.10776 13.9169 5.33021 15.3914 7.10258 16.6617C8.81751 17.8908 10.9466 18.6352 13.2334 18.805C13.4522 18.8213 13.6945 18.8145 13.7717 18.7899C13.9041 18.7477 13.8888 18.7374 13.5061 18.6115C11.6453 17.9993 10.4165 17.4457 9.2364 16.6877C7.7318 15.7213 6.42233 14.3792 5.47149 12.829C5.18658 12.3645 4.7264 11.4031 4.62285 11.056C4.5927 10.9549 4.54275 10.8517 4.5119 10.8268C4.481 10.8018 4.07658 10.6764 3.61312 10.5481C3.14966 10.4198 2.72305 10.3005 2.66514 10.2831C2.60723 10.2656 2.55981 10.2634 2.55981 10.2782Z" fill="#1F1F1F" fill-opacity="0.85"/>
</svg>
