<svg width="25" height="23" viewBox="0 0 25 23" fill="none" xmlns="http://www.w3.org/2000/svg">
<rect width="24" height="22" transform="translate(0.494995 0.380005)" fill="white"/>
<g clip-path="url(#clip0_12_837)">
<path d="M10.2814 11.5734C10.0666 11.5734 9.88037 11.6522 9.72282 11.8097C9.56527 11.9673 9.48649 12.1606 9.48649 12.3898C9.48649 12.6046 9.56527 12.7908 9.72282 12.9484C9.88037 13.1059 10.0666 13.1847 10.2814 13.1847H14.299C14.5138 13.1847 14.7 13.1059 14.8576 12.9484C15.0151 12.7908 15.0939 12.6046 15.0939 12.3898C15.0939 12.1606 15.0151 11.9673 14.8576 11.8097C14.7 11.6522 14.5138 11.5734 14.299 11.5734H10.2814ZM4.35172 0.723774C4.53792 0.594868 4.73844 0.551899 4.95329 0.594868C5.16813 0.637836 5.33284 0.75242 5.44743 0.938618L6.22086 2.09877C6.73649 1.76935 7.29866 1.5187 7.90739 1.34682C8.51611 1.17495 9.14274 1.08901 9.78727 1.08901C10.8042 1.08901 11.7531 1.29669 12.634 1.71206C13.5148 2.12742 14.2489 2.68601 14.8361 3.38784C15.0509 3.01544 15.3481 2.7075 15.7277 2.46401C16.1073 2.22052 16.5262 2.09161 16.9845 2.07729V1.38979C16.9845 1.16062 17.0633 0.967264 17.2209 0.809711C17.3784 0.652161 17.5718 0.573383 17.8009 0.573383C18.0158 0.573383 18.202 0.652161 18.3595 0.809711C18.5171 0.967264 18.5959 1.16062 18.5959 1.38979V2.07729C19.2834 2.10594 19.8706 2.37091 20.3576 2.87221C20.8446 3.37351 21.0881 3.97508 21.0881 4.6769V6.76088C21.174 6.77521 21.2563 6.78953 21.3351 6.80385C21.4139 6.81818 21.4891 6.83966 21.5607 6.86831C21.9331 6.95424 22.2876 7.09389 22.6242 7.28725C22.9608 7.48061 23.2508 7.75633 23.4943 8.1144C23.7235 8.45815 23.8846 8.85561 23.9777 9.30678C24.0708 9.75795 24.103 10.27 24.0744 10.8429C24.0457 11.4015 23.9598 12.0389 23.8166 12.755C23.6733 13.4712 23.4657 14.2733 23.1935 15.1613C22.9357 16.0493 22.6886 16.8299 22.4523 17.5031C22.216 18.1762 21.9904 18.7635 21.7756 19.2648C21.5464 19.7661 21.3029 20.1994 21.0451 20.5646C20.7873 20.9298 20.4937 21.2342 20.1642 21.4777C19.8348 21.7355 19.4803 21.9181 19.1007 22.0255C18.7212 22.133 18.3237 22.201 17.9084 22.2296C17.6219 22.244 17.3068 22.2547 16.9631 22.2619C16.6193 22.269 16.2469 22.2654 15.8459 22.2511C15.7026 22.2511 15.5558 22.2511 15.4054 22.2511C15.255 22.2511 15.1011 22.2511 14.9435 22.2511H9.6154C9.45784 22.2511 9.30387 22.2511 9.15348 22.2511C9.00309 22.2511 8.85628 22.2511 8.71305 22.2511C8.32633 22.2654 7.9611 22.269 7.61735 22.2619C7.2736 22.2547 6.95849 22.244 6.67204 22.2296C6.25667 22.201 5.85921 22.133 5.47965 22.0255C5.1001 21.9181 4.7456 21.7355 4.41618 21.4777C4.08675 21.2342 3.79313 20.9298 3.53532 20.5646C3.27751 20.1994 3.03402 19.7661 2.80485 19.2648C2.59001 18.7635 2.368 18.1762 2.13883 17.5031C1.90967 16.8299 1.65902 16.0493 1.38688 15.1613C1.11474 14.2733 0.907063 13.4712 0.763833 12.755C0.620604 12.0389 0.534667 11.4015 0.506021 10.8429C0.477375 10.27 0.509602 9.75795 0.602701 9.30678C0.6958 8.85561 0.856932 8.45815 1.0861 8.1144C1.32959 7.75633 1.61963 7.48061 1.95622 7.28725C2.2928 7.09389 2.6473 6.95424 3.01969 6.86831C3.09131 6.83966 3.1665 6.81818 3.24528 6.80385C3.32405 6.78953 3.40641 6.77521 3.49235 6.76088C3.50667 6.05906 3.64632 5.40021 3.91129 4.78432C4.17627 4.16844 4.53792 3.617 4.99625 3.13002L4.1154 1.81948C4.00081 1.63328 3.96501 1.43276 4.00797 1.21791C4.05094 1.00307 4.16553 0.838358 4.35172 0.723774ZM19.4982 4.6769V6.67495C19.4552 6.67495 19.4123 6.67495 19.3693 6.67495C19.3263 6.67495 19.2834 6.67495 19.2404 6.67495H16.0822V4.6769C16.0822 4.40476 16.1825 4.17202 16.383 3.97866C16.5835 3.7853 16.8198 3.68862 17.092 3.68862H18.4884C18.7606 3.68862 18.9969 3.7853 19.1974 3.97866C19.3979 4.17202 19.4982 4.40476 19.4982 4.6769ZM9.78727 2.67885C10.4318 2.67885 11.0334 2.78627 11.592 3.00112C12.1506 3.21596 12.6375 3.50242 13.0529 3.86049C13.4683 4.21857 13.8048 4.64109 14.0627 5.12807C14.3062 5.61505 14.4494 6.12351 14.4923 6.65346H5.36149C5.31852 6.65346 5.27555 6.65346 5.23258 6.65346C5.18961 6.65346 5.14665 6.66062 5.10368 6.67495C5.13232 6.13068 5.26839 5.61505 5.51188 5.12807C5.76969 4.64109 6.10628 4.21857 6.52165 3.86049C6.93701 3.50242 7.42399 3.21596 7.98258 3.00112C8.54118 2.78627 9.14274 2.67885 9.78727 2.67885ZM2.09586 10.757C2.12451 11.2296 2.20329 11.7882 2.33219 12.4328C2.4611 13.0773 2.65446 13.8364 2.91227 14.7101C3.18441 15.5838 3.4279 16.3393 3.64274 16.9767C3.85758 17.6141 4.06527 18.1548 4.26579 18.5988C4.46631 19.0428 4.65609 19.3901 4.83512 19.6408C5.01416 19.8914 5.18961 20.0812 5.36149 20.2101C5.53336 20.3247 5.7303 20.4178 5.95231 20.4894C6.17431 20.561 6.45719 20.6111 6.80094 20.6398C7.04443 20.6541 7.31657 20.6613 7.61735 20.6613C7.91813 20.6613 8.25472 20.6613 8.62711 20.6613C8.77034 20.6613 8.9279 20.6613 9.09977 20.6613C9.27165 20.6613 9.44352 20.6613 9.6154 20.6613H14.9435C15.1297 20.6613 15.3052 20.6613 15.4699 20.6613C15.6346 20.6613 15.7957 20.6613 15.9533 20.6613C16.3257 20.6613 16.6587 20.6613 16.9523 20.6613C17.2459 20.6613 17.5216 20.6541 17.7795 20.6398C18.1232 20.6111 18.4061 20.561 18.6281 20.4894C18.8501 20.4178 19.047 20.3247 19.2189 20.2101C19.3908 20.0812 19.5662 19.8914 19.7453 19.6408C19.9243 19.3901 20.1141 19.0428 20.3146 18.5988C20.5151 18.1548 20.7228 17.6141 20.9377 16.9767C21.1525 16.3393 21.396 15.5838 21.6681 14.7101C21.9259 13.8364 22.1193 13.0773 22.2482 12.4328C22.3771 11.7882 22.4559 11.2296 22.4845 10.757C22.5132 10.2843 22.4917 9.91193 22.4201 9.63979C22.3485 9.36765 22.2625 9.15281 22.1623 8.99526C22.0763 8.86635 21.9546 8.75177 21.797 8.65151C21.6395 8.55125 21.439 8.47247 21.1955 8.41518C20.9377 8.35789 20.644 8.3185 20.3146 8.29702C19.9852 8.27553 19.6271 8.26479 19.2404 8.26479H5.36149C4.96045 8.26479 4.59521 8.27553 4.26579 8.29702C3.93636 8.3185 3.64274 8.35789 3.38493 8.41518C3.14144 8.47247 2.94092 8.55125 2.78336 8.65151C2.62581 8.75177 2.50407 8.86635 2.41813 8.99526C2.31787 9.15281 2.23551 9.36765 2.17106 9.63979C2.10661 9.91193 2.08154 10.2843 2.09586 10.757Z" fill="#93959F"/>
</g>
<defs>
<clipPath id="clip0_12_837">
<rect width="24" height="22" fill="white" transform="matrix(1 0 0 -1 0.494995 22.38)"/>
</clipPath>
</defs>
</svg>
