<svg width="30" height="30" viewBox="0 0 14 20" fill="none" xmlns="http://www.w3.org/2000/svg">
<path d="M7.02936 20C6.70454 19.6575 5.2368 17.8467 3.61702 15.4058C3.14448 14.6425 2.83867 14.0475 2.89741 13.8942C3.05118 13.4942 5.79573 13.275 6.64061 13.6375C6.89805 13.7475 6.89114 13.8933 6.89114 13.9783C6.89114 14.345 6.87213 15.3275 6.87213 15.3275C6.87225 15.3758 6.88222 15.4236 6.9015 15.4682C6.92077 15.5128 6.94896 15.5533 6.98445 15.5874C7.01995 15.6215 7.06206 15.6485 7.10838 15.6669C7.1547 15.6853 7.20431 15.6947 7.2544 15.6946C7.30449 15.6945 7.35406 15.6849 7.40029 15.6663C7.44652 15.6477 7.4885 15.6205 7.52384 15.5862C7.55918 15.552 7.58718 15.5114 7.60624 15.4667C7.6253 15.422 7.63505 15.3742 7.63494 15.3258L7.63062 12.8767C7.63062 12.6642 7.39046 12.6108 7.34468 12.6025C6.90323 12.6008 6.00739 12.5975 5.04588 12.5975C2.92333 12.5975 2.44905 12.6817 2.08882 12.4542C1.30787 11.9617 0.0301831 8.64 0.000811044 6.77167C-0.0415192 4.13667 1.5774 1.85417 3.85718 0.723337C4.83905 0.246609 5.92322 -0.00114664 7.02245 3.98952e-06C10.6309 3.98952e-06 13.6026 2.6275 13.9983 6.0075L13.9992 6.01667C14.0717 6.83417 9.40244 7.0075 8.47895 6.77C8.33728 6.73334 8.30099 6.59334 8.30099 6.53334L8.29581 4.16334C8.29558 4.06565 8.25513 3.97205 8.18336 3.90313C8.11159 3.83421 8.01438 3.79562 7.91311 3.79584C7.81184 3.79606 7.71481 3.83508 7.64336 3.90431C7.57192 3.97354 7.53191 4.06732 7.53214 4.165L7.53991 7.38667C7.54074 7.45005 7.56423 7.5112 7.60642 7.5598C7.6486 7.60839 7.7069 7.64143 7.77143 7.65334L10.6689 7.6525C12.2152 7.6525 12.8649 7.825 13.2968 8.1425C13.5845 8.35417 13.6951 8.75834 13.5983 9.28417C12.7301 13.9625 7.23583 19.7583 7.02936 20Z" fill="#36393c"/>
</svg>
