<svg width="30" height="30" viewBox="0 0 16 23" fill="none" xmlns="http://www.w3.org/2000/svg">
<path d="M13.9174 10.9777C13.9603 10.7198 13.9568 10.4978 13.9066 10.3116C13.8565 10.1254 13.767 9.98222 13.6381 9.88196C13.4519 9.72441 13.1869 9.60266 12.8432 9.51672C12.4994 9.43079 11.9766 9.38782 11.2748 9.38782C10.7735 9.38782 10.2758 9.38782 9.78163 9.38782C9.28749 9.38782 8.91867 9.38782 8.67518 9.38782C8.66086 9.38782 8.62505 9.36991 8.56776 9.33411C8.51047 9.2983 8.48182 9.23027 8.48182 9.13L8.46034 6.01477C8.46034 5.91451 8.49614 5.82857 8.56776 5.75696C8.63937 5.68534 8.71815 5.64954 8.80409 5.64954C8.90435 5.64954 8.9867 5.68534 9.05116 5.75696C9.11561 5.82857 9.14784 5.91451 9.14784 6.01477C9.14784 6.01477 9.14784 6.32271 9.14784 6.9386C9.14784 7.55448 9.155 8.01282 9.16932 8.3136C9.16932 8.34224 9.18006 8.38163 9.20155 8.43176C9.22303 8.48189 9.26242 8.51412 9.31971 8.52844C9.52023 8.58573 9.89979 8.62154 10.4584 8.63586C11.0027 8.63586 11.5612 8.60722 12.1342 8.54993C12.7071 8.49264 13.2084 8.4067 13.6381 8.29211C14.0821 8.16321 14.2969 7.99849 14.2826 7.79797C14.1823 6.98157 13.9532 6.21529 13.5951 5.49915C13.237 4.783 12.7787 4.16353 12.2201 3.64075C11.6615 3.11796 11.0241 2.70618 10.308 2.4054C9.59185 2.10461 8.82557 1.95422 8.00917 1.95422C7.49354 1.95422 6.9994 2.0151 6.52674 2.13684C6.05409 2.25859 5.60291 2.43404 5.17323 2.66321C4.6576 2.93534 4.18495 3.27909 3.75526 3.69446C3.32557 4.0955 2.96034 4.55025 2.65955 5.05872C2.35877 5.56718 2.12245 6.11503 1.95057 6.70227C1.7787 7.28951 1.69992 7.9054 1.71424 8.54993C1.71424 8.99394 1.7787 9.50956 1.9076 10.0968C2.03651 10.684 2.19764 11.2534 2.391 11.8048C2.58436 12.3562 2.78846 12.8396 3.0033 13.255C3.21815 13.6704 3.41151 13.9425 3.58338 14.0714C3.74093 14.1717 3.98442 14.2182 4.31385 14.2111C4.64328 14.2039 5.28781 14.2003 6.24745 14.2003C6.67713 14.2003 7.07818 14.2003 7.45057 14.2003C7.82297 14.2003 8.10943 14.2003 8.30995 14.2003C8.32427 14.2146 8.36724 14.2361 8.43885 14.2648C8.51047 14.2934 8.54627 14.365 8.54627 14.4796L8.56776 16.8429C8.56776 16.9432 8.53195 17.0291 8.46034 17.1007C8.38872 17.1723 8.30995 17.2081 8.22401 17.2081C8.12375 17.2081 8.04139 17.1723 7.97694 17.1007C7.91249 17.0291 7.88026 16.9503 7.88026 16.8644C7.88026 16.8644 7.88384 16.6889 7.891 16.338C7.89816 15.9871 7.90174 15.7185 7.90174 15.5323C7.90174 15.5037 7.891 15.4572 7.86952 15.3927C7.84803 15.3282 7.78 15.2674 7.66542 15.2101C7.29302 15.0382 6.65923 14.9881 5.76405 15.0597C4.86886 15.1313 4.38547 15.2674 4.31385 15.4679C4.28521 15.5395 4.33176 15.7078 4.4535 15.9728C4.57525 16.2378 4.74354 16.5564 4.95838 16.9288C5.66021 18.089 6.3119 19.0809 6.91346 19.9044C7.51502 20.728 7.8731 21.2114 7.98768 21.3546C7.98768 21.3689 7.99126 21.3797 7.99842 21.3868C8.00558 21.394 8.00917 21.3976 8.00917 21.3976C8.06646 21.3403 8.36724 20.9751 8.91151 20.3019C9.45578 19.643 10.0645 18.8123 10.7377 17.8097C11.4109 16.8071 12.0626 15.7042 12.6928 14.5011C13.3086 13.298 13.7168 12.1235 13.9174 10.9777ZM3.0033 14.9523C2.73117 14.7804 2.45903 14.4438 2.1869 13.9425C1.91476 13.4555 1.66769 12.8969 1.44569 12.2667C1.22368 11.6365 1.04107 10.992 0.897836 10.3331C0.754607 9.67428 0.675831 9.07987 0.661508 8.54993C0.647185 7.83378 0.733122 7.13196 0.91932 6.44446C1.10552 5.77128 1.37407 5.13749 1.72498 4.54309C2.0759 3.94869 2.502 3.408 3.0033 2.92102C3.51893 2.43404 4.08469 2.02584 4.70057 1.69641C5.20187 1.42428 5.73182 1.22017 6.29041 1.08411C6.84901 0.948039 7.42193 0.880005 8.00917 0.880005C8.95448 0.880005 9.8425 1.05188 10.6732 1.39563C11.5183 1.7537 12.2667 2.2371 12.9183 2.84583C13.57 3.45455 14.1036 4.17428 14.5189 5.005C14.9486 5.83573 15.2136 6.73808 15.3139 7.71204C15.3425 8.08443 15.2852 8.38879 15.142 8.62512C14.9987 8.86145 14.7767 9.05123 14.476 9.19446C14.7051 9.43795 14.8555 9.73157 14.9271 10.0753C14.9987 10.4191 15.0059 10.7843 14.9486 11.171C14.877 11.5721 14.7767 11.9874 14.6478 12.4171C14.5189 12.8468 14.3614 13.2908 14.1752 13.7491C13.903 14.4223 13.5736 15.117 13.1869 15.8331C12.8002 16.5493 12.3633 17.2726 11.8764 18.0031C11.5469 18.5044 11.2103 18.9913 10.8666 19.464C10.5228 19.9366 10.1719 20.4021 9.81385 20.8605C9.61333 21.1183 9.38416 21.4047 9.12635 21.7198C8.86854 22.035 8.76828 22.1567 8.82557 22.0851L7.98768 22.88L7.38612 22.257C7.35747 22.2283 7.33957 22.2104 7.33241 22.2032C7.32525 22.1961 7.30734 22.1853 7.2787 22.171L7.14979 22.0421C7.02088 21.8559 6.86333 21.6375 6.67713 21.3868C6.49094 21.1362 6.29041 20.8533 6.07557 20.5382C5.73182 20.0656 5.39165 19.5714 5.05506 19.0558C4.71847 18.5402 4.38547 18.0174 4.05604 17.4874C3.68364 16.8429 3.44015 16.3667 3.32557 16.0587C3.21099 15.7508 3.20383 15.4464 3.30409 15.1456C3.26112 15.117 3.21457 15.0883 3.16444 15.0597C3.11431 15.031 3.0606 14.9952 3.0033 14.9523Z" fill="white"/>
<path d="M13.9174 10.9777C13.9603 10.7198 13.9568 10.4978 13.9066 10.3116C13.8565 10.1254 13.767 9.98222 13.6381 9.88196C13.4519 9.72441 13.1869 9.60266 12.8432 9.51672C12.4994 9.43079 11.9766 9.38782 11.2748 9.38782H9.78163H8.67518C8.66086 9.38782 8.62505 9.36991 8.56776 9.33411C8.51047 9.2983 8.48182 9.23027 8.48182 9.13L8.46034 6.01477C8.46034 5.91451 8.49614 5.82857 8.56776 5.75696C8.63937 5.68534 8.71815 5.64954 8.80409 5.64954C8.90435 5.64954 8.9867 5.68534 9.05116 5.75696C9.11561 5.82857 9.14784 5.91451 9.14784 6.01477V6.9386C9.14784 7.55448 9.155 8.01282 9.16932 8.3136C9.16932 8.34224 9.18006 8.38163 9.20155 8.43176C9.22303 8.48189 9.26242 8.51412 9.31971 8.52844C9.52023 8.58573 9.89979 8.62154 10.4584 8.63586C11.0027 8.63586 11.5612 8.60722 12.1342 8.54993C12.7071 8.49264 13.2084 8.4067 13.6381 8.29211C14.0821 8.16321 14.2969 7.99849 14.2826 7.79797C14.1823 6.98157 13.9532 6.21529 13.5951 5.49915C13.237 4.783 12.7787 4.16353 12.2201 3.64075C11.6615 3.11796 11.0241 2.70618 10.308 2.4054C9.59185 2.10461 8.82557 1.95422 8.00917 1.95422C7.49354 1.95422 6.9994 2.0151 6.52674 2.13684C6.05409 2.25859 5.60291 2.43404 5.17323 2.66321C4.6576 2.93534 4.18495 3.27909 3.75526 3.69446C3.32557 4.0955 2.96034 4.55025 2.65955 5.05872C2.35877 5.56718 2.12245 6.11503 1.95057 6.70227C1.7787 7.28951 1.69992 7.9054 1.71424 8.54993C1.71424 8.99394 1.7787 9.50956 1.9076 10.0968C2.03651 10.684 2.19764 11.2534 2.391 11.8048C2.58436 12.3562 2.78846 12.8396 3.0033 13.255C3.21815 13.6704 3.41151 13.9425 3.58338 14.0714C3.74093 14.1717 3.98442 14.2182 4.31385 14.2111C4.64328 14.2039 5.28781 14.2003 6.24745 14.2003H7.45057H8.30995C8.32427 14.2146 8.36724 14.2361 8.43885 14.2648C8.51047 14.2934 8.54627 14.365 8.54627 14.4796L8.56776 16.8429C8.56776 16.9432 8.53195 17.0291 8.46034 17.1007C8.38872 17.1723 8.30995 17.2081 8.22401 17.2081C8.12375 17.2081 8.04139 17.1723 7.97694 17.1007C7.91249 17.0291 7.88026 16.9503 7.88026 16.8644L7.891 16.338C7.89816 15.9871 7.90174 15.7185 7.90174 15.5323C7.90174 15.5037 7.891 15.4572 7.86952 15.3927C7.84803 15.3282 7.78 15.2674 7.66542 15.2101C7.29302 15.0382 6.65923 14.9881 5.76405 15.0597C4.86886 15.1313 4.38547 15.2674 4.31385 15.4679C4.28521 15.5395 4.33176 15.7078 4.4535 15.9728C4.57525 16.2378 4.74354 16.5564 4.95838 16.9288C5.66021 18.089 6.3119 19.0809 6.91346 19.9044C7.51502 20.728 7.8731 21.2114 7.98768 21.3546C7.98768 21.3689 7.99126 21.3797 7.99842 21.3868L8.00917 21.3976C8.06646 21.3403 8.36724 20.9751 8.91151 20.3019C9.45578 19.643 10.0645 18.8123 10.7377 17.8097C11.4109 16.8071 12.0626 15.7042 12.6928 14.5011C13.3086 13.298 13.7168 12.1235 13.9174 10.9777Z" fill="white"/>
<path d="M13.9174 10.9777C13.9603 10.7198 13.9568 10.4978 13.9066 10.3116C13.8565 10.1254 13.767 9.98222 13.6381 9.88196C13.4519 9.72441 13.1869 9.60266 12.8432 9.51672C12.4994 9.43079 11.9766 9.38782 11.2748 9.38782C10.7735 9.38782 10.2758 9.38782 9.78163 9.38782C9.28749 9.38782 8.91867 9.38782 8.67518 9.38782C8.66086 9.38782 8.62505 9.36991 8.56776 9.33411C8.51047 9.2983 8.48182 9.23027 8.48182 9.13L8.46034 6.01477C8.46034 5.91451 8.49614 5.82857 8.56776 5.75696C8.63937 5.68534 8.71815 5.64954 8.80409 5.64954C8.90435 5.64954 8.9867 5.68534 9.05116 5.75696C9.11561 5.82857 9.14784 5.91451 9.14784 6.01477C9.14784 6.01477 9.14784 6.32271 9.14784 6.9386C9.14784 7.55448 9.155 8.01282 9.16932 8.3136C9.16932 8.34224 9.18006 8.38163 9.20155 8.43176C9.22303 8.48189 9.26242 8.51412 9.31971 8.52844C9.52023 8.58573 9.89979 8.62154 10.4584 8.63586C11.0027 8.63586 11.5612 8.60722 12.1342 8.54993C12.7071 8.49264 13.2084 8.4067 13.6381 8.29211C14.0821 8.16321 14.2969 7.99849 14.2826 7.79797C14.1823 6.98157 13.9532 6.21529 13.5951 5.49915C13.237 4.783 12.7787 4.16353 12.2201 3.64075C11.6615 3.11796 11.0241 2.70618 10.308 2.4054C9.59185 2.10461 8.82557 1.95422 8.00917 1.95422C7.49354 1.95422 6.9994 2.0151 6.52674 2.13684C6.05409 2.25859 5.60291 2.43404 5.17323 2.66321C4.6576 2.93534 4.18495 3.27909 3.75526 3.69446C3.32557 4.0955 2.96034 4.55025 2.65955 5.05872C2.35877 5.56718 2.12245 6.11503 1.95057 6.70227C1.7787 7.28951 1.69992 7.9054 1.71424 8.54993C1.71424 8.99394 1.7787 9.50956 1.9076 10.0968C2.03651 10.684 2.19764 11.2534 2.391 11.8048C2.58436 12.3562 2.78846 12.8396 3.0033 13.255C3.21815 13.6704 3.41151 13.9425 3.58338 14.0714C3.74093 14.1717 3.98442 14.2182 4.31385 14.2111C4.64328 14.2039 5.28781 14.2003 6.24745 14.2003C6.67713 14.2003 7.07818 14.2003 7.45057 14.2003C7.82297 14.2003 8.10943 14.2003 8.30995 14.2003C8.32427 14.2146 8.36724 14.2361 8.43885 14.2648C8.51047 14.2934 8.54627 14.365 8.54627 14.4796L8.56776 16.8429C8.56776 16.9432 8.53195 17.0291 8.46034 17.1007C8.38872 17.1723 8.30995 17.2081 8.22401 17.2081C8.12375 17.2081 8.04139 17.1723 7.97694 17.1007C7.91249 17.0291 7.88026 16.9503 7.88026 16.8644C7.88026 16.8644 7.88384 16.6889 7.891 16.338C7.89816 15.9871 7.90174 15.7185 7.90174 15.5323C7.90174 15.5037 7.891 15.4572 7.86952 15.3927C7.84803 15.3282 7.78 15.2674 7.66542 15.2101C7.29302 15.0382 6.65923 14.9881 5.76405 15.0597C4.86886 15.1313 4.38547 15.2674 4.31385 15.4679C4.28521 15.5395 4.33176 15.7078 4.4535 15.9728C4.57525 16.2378 4.74354 16.5564 4.95838 16.9288C5.66021 18.089 6.3119 19.0809 6.91346 19.9044C7.51502 20.728 7.8731 21.2114 7.98768 21.3546C7.98768 21.3689 7.99126 21.3797 7.99842 21.3868C8.00558 21.394 8.00917 21.3976 8.00917 21.3976C8.06646 21.3403 8.36724 20.9751 8.91151 20.3019C9.45578 19.643 10.0645 18.8123 10.7377 17.8097C11.4109 16.8071 12.0626 15.7042 12.6928 14.5011C13.3086 13.298 13.7168 12.1235 13.9174 10.9777ZM3.0033 14.9523C2.73117 14.7804 2.45903 14.4438 2.1869 13.9425C1.91476 13.4555 1.66769 12.8969 1.44569 12.2667C1.22368 11.6365 1.04107 10.992 0.897836 10.3331C0.754607 9.67428 0.675831 9.07987 0.661508 8.54993C0.647185 7.83378 0.733122 7.13196 0.91932 6.44446C1.10552 5.77128 1.37407 5.13749 1.72498 4.54309C2.0759 3.94869 2.502 3.408 3.0033 2.92102C3.51893 2.43404 4.08469 2.02584 4.70057 1.69641C5.20187 1.42428 5.73182 1.22017 6.29041 1.08411C6.84901 0.948039 7.42193 0.880005 8.00917 0.880005C8.95448 0.880005 9.8425 1.05188 10.6732 1.39563C11.5183 1.7537 12.2667 2.2371 12.9183 2.84583C13.57 3.45455 14.1036 4.17428 14.5189 5.005C14.9486 5.83573 15.2136 6.73808 15.3139 7.71204C15.3425 8.08443 15.2852 8.38879 15.142 8.62512C14.9987 8.86145 14.7767 9.05123 14.476 9.19446C14.7051 9.43795 14.8555 9.73157 14.9271 10.0753C14.9987 10.4191 15.0059 10.7843 14.9486 11.171C14.877 11.5721 14.7767 11.9874 14.6478 12.4171C14.5189 12.8468 14.3614 13.2908 14.1752 13.7491C13.903 14.4223 13.5736 15.117 13.1869 15.8331C12.8002 16.5493 12.3633 17.2726 11.8764 18.0031C11.5469 18.5044 11.2103 18.9913 10.8666 19.464C10.5228 19.9366 10.1719 20.4021 9.81385 20.8605C9.61333 21.1183 9.38416 21.4047 9.12635 21.7198C8.86854 22.035 8.76828 22.1567 8.82557 22.0851L7.98768 22.88L7.38612 22.257C7.35747 22.2283 7.33957 22.2104 7.33241 22.2032C7.32525 22.1961 7.30734 22.1853 7.2787 22.171L7.14979 22.0421C7.02088 21.8559 6.86333 21.6375 6.67713 21.3868C6.49094 21.1362 6.29041 20.8533 6.07557 20.5382C5.73182 20.0656 5.39165 19.5714 5.05506 19.0558C4.71847 18.5402 4.38547 18.0174 4.05604 17.4874C3.68364 16.8429 3.44015 16.3667 3.32557 16.0587C3.21099 15.7508 3.20383 15.4464 3.30409 15.1456C3.26112 15.117 3.21457 15.0883 3.16444 15.0597C3.11431 15.031 3.0606 14.9952 3.0033 14.9523Z" fill="#93959F"/>
</svg>
